<svg width="498" height="498" viewBox="0 0 498 498" fill="none" xmlns="http://www.w3.org/2000/svg">
<rect width="498" height="498" fill="black"/>
<path d="M249.727 270.982C267.026 270.982 285.403 265.419 285.403 255.117V235.673C285.403 235.029 285.334 234.406 285.191 233.796C284.917 232.582 284.369 231.446 283.591 230.385C283.202 229.853 282.757 229.342 282.262 228.85C281.904 228.499 281.521 228.156 281.11 227.823C280.952 227.696 280.784 227.577 280.622 227.453C280.357 227.254 280.099 227.058 279.819 226.868C279.595 226.712 279.358 226.569 279.118 226.419C278.885 226.27 278.648 226.121 278.402 225.974C278.119 225.809 277.827 225.651 277.534 225.495C277.319 225.38 277.105 225.265 276.884 225.153C276.544 224.981 276.189 224.817 275.838 224.655C275.648 224.567 275.464 224.48 275.268 224.399C274.87 224.222 274.462 224.054 274.048 223.889C273.892 223.827 273.737 223.771 273.587 223.708C273.124 223.534 272.657 223.36 272.177 223.195C272.072 223.158 271.963 223.123 271.854 223.086C271.321 222.909 270.789 222.737 270.232 222.572C266.846 221.564 263.104 220.823 259.226 220.366C257.667 220.182 256.086 220.042 254.498 219.949C254.495 219.949 254.495 219.949 254.489 219.949C252.908 219.855 251.314 219.808 249.73 219.808H249.727C234.6 219.808 218.633 224.066 214.879 232.034C214.343 233.171 214.057 234.384 214.057 235.673V237.544V244.005V255.117C214.057 265.416 232.437 270.982 249.727 270.982ZM279.355 255.117C279.355 259.117 267.823 264.928 249.736 264.928V251.534C260.919 251.531 272.526 249.194 279.355 244.762V255.117ZM220.239 234.904C220.316 234.671 220.438 234.431 220.584 234.191C220.637 234.107 220.709 234.023 220.768 233.939C220.88 233.781 220.992 233.622 221.132 233.463C221.222 233.36 221.331 233.255 221.434 233.152C221.571 233.012 221.711 232.872 221.87 232.732C222.003 232.613 222.15 232.498 222.296 232.383C222.452 232.259 222.613 232.134 222.788 232.01C222.965 231.879 223.158 231.751 223.357 231.624C223.519 231.518 223.694 231.412 223.868 231.303C224.101 231.163 224.341 231.02 224.599 230.88C224.755 230.793 224.923 230.709 225.085 230.624C225.387 230.469 225.692 230.313 226.022 230.164C226.137 230.108 226.258 230.058 226.377 230.005C229.651 228.533 234.111 227.263 239.539 226.528C239.558 226.525 239.577 226.522 239.595 226.522C240.374 226.416 241.17 226.326 241.986 226.245C242.02 226.242 242.051 226.239 242.082 226.236C242.904 226.155 243.741 226.086 244.597 226.03C244.6 226.03 244.6 226.03 244.607 226.03C246.253 225.925 247.953 225.856 249.73 225.856C251.597 225.856 253.39 225.921 255.115 226.037C257.997 226.23 260.655 226.578 263.089 227.033C263.254 227.064 263.425 227.095 263.593 227.129C265.517 227.503 267.288 227.951 268.894 228.443C269.059 228.492 269.217 228.545 269.379 228.595C270.157 228.844 270.908 229.102 271.605 229.373C271.617 229.376 271.623 229.383 271.633 229.386C272.308 229.647 272.928 229.921 273.519 230.201C273.662 230.27 273.808 230.338 273.948 230.407C274.524 230.69 275.069 230.979 275.558 231.269C275.576 231.278 275.589 231.287 275.607 231.297C276.074 231.58 276.491 231.869 276.877 232.156C276.98 232.234 277.073 232.308 277.176 232.386C277.547 232.685 277.889 232.981 278.169 233.279C278.947 234.107 279.352 234.92 279.352 235.67C279.352 239.673 267.814 245.484 249.73 245.484C248.391 245.484 247.106 245.443 245.842 245.381C245.463 245.365 245.095 245.337 244.725 245.316C243.822 245.26 242.935 245.188 242.07 245.107C241.715 245.07 241.357 245.039 241.009 244.998C239.997 244.883 239.01 244.749 238.058 244.603C237.93 244.581 237.796 244.566 237.669 244.544C236.551 244.36 235.49 244.155 234.466 243.924C234.317 243.893 234.177 243.856 234.033 243.822C233.156 243.619 232.315 243.405 231.515 243.174C231.357 243.128 231.198 243.084 231.045 243.037C226.759 241.767 223.606 240.158 221.82 238.555C221.751 238.493 221.686 238.431 221.624 238.368C221.462 238.216 221.303 238.063 221.169 237.914C220.989 237.715 220.827 237.513 220.693 237.313C220.631 237.226 220.59 237.139 220.541 237.052C220.447 236.89 220.366 236.728 220.304 236.569C220.273 236.495 220.242 236.42 220.22 236.345C220.155 236.118 220.102 235.891 220.102 235.67C220.105 235.424 220.151 235.166 220.239 234.904Z" fill="white"/>
<path d="M404.501 227.515C404.473 227.431 404.435 227.35 404.407 227.266C404.339 227.089 404.258 226.921 404.161 226.759C404.108 226.675 404.055 226.594 403.99 226.516C403.878 226.367 403.754 226.236 403.613 226.108C403.545 226.046 403.483 225.984 403.408 225.928C403.377 225.906 403.355 225.872 403.324 225.85C403.128 225.713 402.913 225.604 402.695 225.52C402.689 225.52 402.689 225.517 402.686 225.517C402.677 225.514 402.673 225.511 402.664 225.511L361.342 209.69V207.06C361.342 206.415 361.274 205.79 361.13 205.183C360.857 203.969 360.309 202.833 359.531 201.768C359.142 201.239 358.693 200.729 358.198 200.234C357.844 199.882 357.458 199.543 357.05 199.21C356.891 199.082 356.723 198.964 356.558 198.839C356.297 198.64 356.038 198.441 355.758 198.254C355.534 198.099 355.298 197.952 355.058 197.806C354.824 197.657 354.588 197.507 354.342 197.361C354.059 197.196 353.766 197.037 353.474 196.878C353.256 196.763 353.041 196.648 352.823 196.536C352.481 196.365 352.129 196.203 351.777 196.038C351.587 195.951 351.401 195.864 351.208 195.78C350.809 195.605 350.398 195.434 349.988 195.269C349.832 195.21 349.676 195.151 349.524 195.089C349.063 194.914 348.596 194.74 348.117 194.575C348.008 194.538 347.902 194.507 347.793 194.466C347.261 194.289 346.726 194.118 346.172 193.95C342.782 192.941 339.041 192.2 335.163 191.746C333.606 191.562 332.025 191.422 330.438 191.329C330.432 191.329 330.432 191.329 330.428 191.329C328.844 191.235 327.251 191.189 325.673 191.189H325.666C322.068 191.189 318.427 191.438 314.909 191.911L284.674 180.335V177.715C284.674 177.07 284.606 176.445 284.463 175.838C284.189 174.624 283.641 173.488 282.863 172.423C282.477 171.894 282.029 171.384 281.534 170.889C281.176 170.537 280.793 170.198 280.382 169.865C280.223 169.737 280.055 169.619 279.893 169.494C279.629 169.295 279.371 169.096 279.094 168.906C278.866 168.754 278.63 168.607 278.39 168.458C278.157 168.308 277.92 168.159 277.674 168.013C277.391 167.848 277.098 167.689 276.806 167.53C276.591 167.415 276.376 167.3 276.155 167.188C275.816 167.017 275.464 166.855 275.109 166.69C274.92 166.603 274.736 166.516 274.543 166.432C274.141 166.257 273.734 166.086 273.32 165.921C273.164 165.859 273.012 165.803 272.859 165.741C272.398 165.566 271.928 165.392 271.449 165.227C271.343 165.19 271.234 165.159 271.125 165.118C270.593 164.941 270.061 164.77 269.504 164.601C266.117 163.593 262.376 162.852 258.498 162.398C256.939 162.214 255.357 162.074 253.77 161.981C253.767 161.981 253.767 161.981 253.764 161.981C252.176 161.9 250.586 161.85 249.002 161.85H248.998C233.872 161.85 217.904 166.108 214.151 174.076C213.615 175.212 213.329 176.429 213.329 177.715V179.579L182.86 191.058C183.016 191.077 183.168 191.105 183.321 191.123C183.066 191.092 182.814 191.052 182.558 191.018C180.999 190.834 179.418 190.694 177.83 190.6C177.827 190.6 177.827 190.6 177.824 190.6C176.24 190.507 174.646 190.46 173.065 190.46H173.062C157.932 190.46 141.968 194.718 138.214 202.686C137.679 203.822 137.389 205.036 137.389 206.325V208.189L95.339 224.035C95.1087 224.122 94.8877 224.234 94.6823 224.378C94.6511 224.399 94.6294 224.427 94.6013 224.449C94.5266 224.505 94.4644 224.567 94.3959 224.63C94.2558 224.757 94.1282 224.888 94.0131 225.037C93.9508 225.115 93.8979 225.196 93.845 225.28C93.7454 225.442 93.6676 225.607 93.5991 225.781C93.5649 225.865 93.5275 225.946 93.5026 226.034C93.431 226.292 93.3812 226.553 93.3781 226.827C93.3781 226.837 93.375 226.846 93.375 226.858C93.375 226.861 93.375 226.861 93.375 226.861C93.375 226.861 93.375 226.861 93.375 226.865V268.317C93.375 269.568 94.1469 270.695 95.3172 271.14L248.65 329.83C248.678 329.843 248.709 329.836 248.734 329.849C249.058 329.961 249.391 330.033 249.73 330.033C250.066 330.033 250.396 329.964 250.713 329.852C250.738 329.843 250.769 329.849 250.794 329.836L402.664 272.622C403.844 272.177 404.625 271.05 404.625 269.793V228.337C404.625 228.054 404.572 227.783 404.501 227.515ZM315.532 197.909C316.313 197.806 317.11 197.713 317.925 197.632C317.96 197.629 317.991 197.625 318.022 197.622C318.844 197.541 319.678 197.473 320.54 197.42C320.543 197.42 320.543 197.42 320.549 197.42C322.193 197.314 323.892 197.246 325.669 197.246C327.537 197.246 329.333 197.308 331.057 197.426C333.939 197.619 336.598 197.968 339.032 198.422C339.2 198.453 339.368 198.484 339.536 198.519C341.462 198.895 343.233 199.34 344.84 199.832C345.004 199.882 345.163 199.935 345.322 199.985C346.103 200.237 346.85 200.495 347.547 200.763C347.56 200.766 347.569 200.769 347.579 200.775C348.254 201.037 348.873 201.314 349.465 201.591C349.605 201.659 349.751 201.728 349.894 201.796C350.47 202.079 351.015 202.366 351.503 202.658C351.522 202.668 351.535 202.677 351.55 202.69C352.02 202.973 352.437 203.259 352.82 203.549C352.926 203.623 353.019 203.701 353.122 203.776C353.492 204.075 353.835 204.373 354.112 204.669C354.893 205.497 355.298 206.309 355.298 207.063C355.298 211.065 343.759 216.876 325.676 216.876C324.337 216.876 323.049 216.833 321.788 216.774C321.408 216.758 321.041 216.73 320.671 216.708C319.768 216.652 318.881 216.581 318.016 216.497C317.658 216.462 317.303 216.428 316.951 216.388C315.94 216.273 314.953 216.139 314.004 215.989C313.876 215.968 313.742 215.955 313.615 215.933C312.5 215.75 311.439 215.541 310.412 215.314C310.262 215.283 310.125 215.245 309.979 215.211C309.101 215.009 308.261 214.791 307.461 214.564C307.302 214.517 307.144 214.47 306.991 214.427C302.702 213.16 299.552 211.548 297.766 209.945C297.697 209.883 297.629 209.823 297.566 209.758C297.408 209.606 297.249 209.453 297.112 209.304C296.931 209.104 296.77 208.902 296.636 208.703C296.573 208.616 296.533 208.529 296.483 208.445C296.393 208.283 296.306 208.121 296.247 207.962C296.216 207.887 296.184 207.813 296.163 207.738C296.097 207.508 296.047 207.284 296.047 207.063C296.047 206.811 296.094 206.555 296.181 206.294C296.259 206.06 296.38 205.821 296.527 205.581C296.58 205.497 296.651 205.416 296.71 205.332C296.822 205.173 296.935 205.015 297.075 204.856C297.162 204.75 297.274 204.647 297.377 204.541C297.513 204.401 297.657 204.264 297.815 204.124C297.949 204.006 298.096 203.891 298.245 203.773C298.401 203.648 298.562 203.524 298.734 203.399C298.914 203.268 299.104 203.141 299.303 203.01C299.468 202.904 299.636 202.798 299.814 202.69C300.044 202.549 300.287 202.406 300.545 202.266C300.701 202.182 300.866 202.098 301.028 202.011C301.333 201.855 301.634 201.7 301.964 201.547C302.076 201.494 302.204 201.441 302.319 201.388C305.594 199.916 310.054 198.646 315.485 197.915C315.495 197.915 315.516 197.912 315.532 197.909ZM355.291 216.151V226.503C355.291 230.503 343.756 236.317 325.673 236.317V222.924C336.859 222.921 348.466 220.583 355.291 216.151ZM219.51 176.946C219.588 176.712 219.71 176.473 219.856 176.233C219.909 176.149 219.98 176.065 220.039 175.984C220.152 175.825 220.264 175.667 220.404 175.508C220.494 175.402 220.603 175.299 220.706 175.193C220.842 175.053 220.986 174.913 221.144 174.776C221.275 174.658 221.421 174.543 221.571 174.425C221.726 174.3 221.888 174.176 222.059 174.051C222.24 173.92 222.43 173.793 222.629 173.662C222.791 173.556 222.965 173.45 223.14 173.341C223.373 173.201 223.613 173.058 223.871 172.918C224.027 172.834 224.195 172.75 224.357 172.663C224.658 172.507 224.963 172.352 225.293 172.199C225.409 172.146 225.53 172.093 225.648 172.04C228.923 170.568 233.383 169.298 238.811 168.567C238.83 168.564 238.848 168.561 238.867 168.557C239.645 168.455 240.442 168.361 241.261 168.28C241.295 168.277 241.326 168.274 241.357 168.271C242.176 168.196 243.013 168.128 243.872 168.075C243.875 168.075 243.875 168.075 243.878 168.075C245.525 167.969 247.224 167.901 249.002 167.901C250.869 167.901 252.662 167.963 254.386 168.081C257.272 168.274 259.927 168.623 262.361 169.077C262.529 169.108 262.697 169.14 262.865 169.174C264.788 169.55 266.562 169.995 268.169 170.487C268.33 170.537 268.492 170.59 268.651 170.64C269.429 170.892 270.179 171.15 270.876 171.418C270.889 171.421 270.895 171.424 270.904 171.43C271.58 171.692 272.202 171.969 272.791 172.246C272.934 172.314 273.08 172.383 273.22 172.451C273.799 172.735 274.341 173.021 274.832 173.313C274.848 173.323 274.86 173.332 274.879 173.345C275.346 173.628 275.766 173.914 276.149 174.204C276.252 174.278 276.348 174.356 276.448 174.431C276.818 174.73 277.161 175.025 277.441 175.324C278.219 176.152 278.624 176.964 278.624 177.718C278.624 181.72 267.085 187.531 249.002 187.531C247.663 187.531 246.378 187.488 245.114 187.429C244.734 187.413 244.37 187.385 244 187.363C243.094 187.307 242.207 187.236 241.345 187.152C240.99 187.118 240.632 187.083 240.283 187.043C239.272 186.928 238.285 186.794 237.333 186.644C237.205 186.623 237.071 186.61 236.944 186.588C235.826 186.405 234.765 186.196 233.741 185.969C233.595 185.938 233.454 185.901 233.308 185.866C232.43 185.664 231.59 185.446 230.79 185.219C230.631 185.172 230.473 185.129 230.32 185.082C226.034 183.812 222.881 182.203 221.095 180.6C221.026 180.538 220.961 180.475 220.899 180.413C220.737 180.261 220.578 180.108 220.444 179.959C220.264 179.759 220.102 179.557 219.968 179.358C219.906 179.271 219.865 179.184 219.815 179.1C219.725 178.938 219.641 178.776 219.579 178.617C219.548 178.542 219.517 178.468 219.495 178.393C219.429 178.163 219.376 177.939 219.376 177.718C219.376 177.466 219.423 177.21 219.51 176.946ZM278.627 186.806V197.159C278.627 201.158 267.095 206.972 249.008 206.972V193.579C260.194 193.576 271.801 191.239 278.627 186.806ZM186.2 191.553C186.029 191.525 185.861 191.488 185.69 191.463C185.861 191.488 186.032 191.522 186.2 191.553ZM188.637 192.004C188.618 192.001 188.597 191.998 188.578 191.992C188.6 191.998 188.622 192.001 188.637 192.004ZM143.574 205.559C143.652 205.326 143.773 205.086 143.919 204.846C143.972 204.762 144.044 204.678 144.103 204.594C144.212 204.436 144.327 204.277 144.467 204.118C144.554 204.015 144.666 203.91 144.769 203.807C144.906 203.667 145.049 203.527 145.208 203.387C145.342 203.268 145.488 203.153 145.634 203.038C145.79 202.914 145.952 202.789 146.123 202.665C146.304 202.534 146.493 202.406 146.693 202.276C146.855 202.17 147.026 202.064 147.203 201.958C147.437 201.818 147.679 201.675 147.935 201.535C148.09 201.451 148.258 201.367 148.42 201.28C148.722 201.124 149.027 200.968 149.357 200.819C149.472 200.763 149.594 200.713 149.712 200.66C152.983 199.188 157.446 197.918 162.875 197.183C162.893 197.18 162.912 197.177 162.931 197.177C163.709 197.071 164.506 196.981 165.321 196.9C165.355 196.897 165.387 196.894 165.418 196.891C166.239 196.81 167.077 196.741 167.936 196.685C167.939 196.685 167.939 196.685 167.945 196.685C169.592 196.58 171.291 196.514 173.068 196.514C174.936 196.514 176.732 196.577 178.453 196.692C181.335 196.885 183.993 197.233 186.427 197.688C186.595 197.719 186.763 197.75 186.931 197.784C188.858 198.158 190.629 198.606 192.235 199.098C192.397 199.147 192.559 199.2 192.721 199.25C193.499 199.499 194.252 199.758 194.946 200.028C194.956 200.031 194.965 200.038 194.974 200.041C195.647 200.302 196.269 200.576 196.857 200.856C197.001 200.925 197.147 200.993 197.287 201.062C197.863 201.345 198.41 201.634 198.896 201.924C198.912 201.933 198.924 201.943 198.94 201.952C199.41 202.235 199.827 202.525 200.21 202.811C200.315 202.889 200.412 202.963 200.511 203.041C200.882 203.34 201.224 203.636 201.504 203.935C202.282 204.762 202.687 205.575 202.687 206.325C202.687 210.328 191.146 216.139 173.065 216.139C171.727 216.139 170.441 216.098 169.178 216.036C168.798 216.02 168.431 215.992 168.06 215.971C167.154 215.915 166.267 215.843 165.405 215.762C165.047 215.725 164.692 215.694 164.344 215.653C163.332 215.538 162.346 215.404 161.393 215.255C161.266 215.236 161.132 215.221 161.004 215.199C159.887 215.015 158.825 214.807 157.798 214.579C157.652 214.548 157.512 214.511 157.366 214.477C156.488 214.274 155.651 214.06 154.847 213.829C154.689 213.783 154.53 213.739 154.378 213.692C150.092 212.422 146.939 210.813 145.152 209.21C145.083 209.148 145.018 209.086 144.953 209.024C144.794 208.871 144.635 208.718 144.498 208.569C144.318 208.37 144.153 208.168 144.022 207.968C143.96 207.881 143.919 207.794 143.87 207.71C143.776 207.548 143.692 207.386 143.63 207.228C143.599 207.153 143.571 207.078 143.549 207C143.484 206.773 143.431 206.546 143.431 206.325C143.44 206.076 143.487 205.821 143.574 205.559ZM202.69 215.417V225.772C202.69 229.772 191.155 235.583 173.071 235.583V222.19C184.255 222.186 195.861 219.849 202.69 215.417ZM173.062 241.633C190.358 241.633 208.738 236.075 208.738 225.772V206.328C208.738 205.684 208.666 205.058 208.526 204.451C208.249 203.237 207.705 202.101 206.926 201.04C206.537 200.508 206.092 199.997 205.594 199.505C205.239 199.154 204.853 198.814 204.446 198.478C204.29 198.351 204.116 198.232 203.954 198.111C203.692 197.912 203.434 197.713 203.154 197.523C202.93 197.37 202.69 197.224 202.457 197.075C202.22 196.925 201.987 196.776 201.738 196.629C201.458 196.464 201.162 196.306 200.866 196.15C200.651 196.035 200.437 195.92 200.216 195.808C199.876 195.637 199.525 195.472 199.173 195.31C198.986 195.223 198.796 195.135 198.603 195.054C198.205 194.877 197.797 194.709 197.383 194.544C197.228 194.482 197.075 194.426 196.92 194.363C196.459 194.189 195.992 194.015 195.513 193.85C195.404 193.813 195.295 193.778 195.189 193.741C194.781 193.607 194.364 193.476 193.947 193.346L213.332 186.037V186.044V197.155C213.332 207.458 231.711 213.02 249.002 213.02C266.301 213.02 284.677 207.458 284.677 197.155V186.819L304.146 194.27C297.719 196.331 292.717 199.403 290.822 203.421C290.286 204.56 290 205.774 290 207.06V208.927V215.392V226.503C290 236.806 308.376 242.368 325.669 242.368C342.966 242.368 361.345 236.806 361.345 226.503V216.164L393.087 228.315L307.856 260.43L249.733 282.33L104.91 226.893L137.392 214.651V214.654V225.766C137.392 236.075 155.772 241.633 173.062 241.633ZM398.58 267.701L252.752 322.643V287.655L398.58 232.71V267.701Z" fill="white"/>
</svg>
